# xmcd CD database file
#
# Track frame offsets:
#	150
#	24990
#	38295
#	54497
#	71472
#	95787
#	112645
#	133362
#	145802
#	158302
#	168840
#
# Disc length: 2417 seconds
#
# Revision: 0
# Processed by: cddbd v1.4PL0 Copyright (c) Steve Scherf et al.
# Submitted via: CDex 1.50Beta5
#
DISCID=7f096f0b
DTITLE=The Sonics - The Sonics
DYEAR=1900
DGENRE=Blues
TTITLE0=Whiskey In The Jar
TTITLE1=Little Queeny
TTITLE2=The Convict
TTITLE3=Beautiful Woman
TTITLE4=I'm Alone
TTITLE5=I'm Ready
TTITLE6=Lonely Woman
TTITLE7=Movin' On
TTITLE8=Shake Your Moneymaker
TTITLE9=Memphis
TTITLE10=Roll On
EXTD=
EXTT0=
EXTT1=
EXTT2=
EXTT3=
EXTT4=
EXTT5=
EXTT6=
EXTT7=
EXTT8=
EXTT9=
EXTT10=
PLAYORDER=
